<?xml version="1.0" encoding="UTF-8" standalone="no"?>
<!DOCTYPE svg PUBLIC "-//W3C//DTD SVG 1.1//EN" "http://www.w3.org/Graphics/SVG/1.1/DTD/svg11.dtd">
<svg width="100%" height="100%" viewBox="0 0 444 478" version="1.1" xmlns="http://www.w3.org/2000/svg" xmlns:xlink="http://www.w3.org/1999/xlink" xml:space="preserve" xmlns:serif="http://www.serif.com/" style="fill-rule:evenodd;clip-rule:evenodd;stroke-linejoin:round;stroke-miterlimit:2;">
    <g transform="matrix(1,0,0,1,-178.081806,-247.212165)">
        <g id="SVGRepo_iconCarrier" transform="matrix(1.448226,0,0,1.448226,0,0)">
            <g>
                <g transform="matrix(0.6905,0,0,0.6905,0,0)">
                    <path d="M510.355,247.212C537.001,247.212 559.16,269.37 559.16,296.017C559.16,322.665 537.001,343.809 510.355,343.809C483.707,343.809 462.563,322.52 462.563,296.017C462.563,269.515 482.839,247.212 510.355,247.212Z" style="fill-rule:nonzero;"/>
                </g>
                <g transform="matrix(0.6905,0,0,0.6905,0,0)">
                    <path d="M340.333,584.794C329.761,597.25 322.665,601.594 308.472,600.724L201.159,598.988C187.835,598.117 177.263,584.794 178.132,573.354C179.001,557.424 189.718,548.588 204.779,548.588L303.114,547.719L326.14,516.582L367.849,550.326L340.333,584.794Z" style="fill-rule:nonzero;"/>
                </g>
                <g transform="matrix(0.6905,0,0,0.6905,0,0)">
                    <path d="M597.248,504.129L509.486,484.721C503.259,482.983 498.914,478.494 496.164,473.135L475.742,427.951C474.004,429.689 428.821,504.129 428.821,504.129L480.233,543.085C496.164,556.408 497.9,568.718 491.819,585.663L438.669,708.038C434.178,719.623 421.001,727.589 407.677,723.098C394.353,718.608 385.519,703.547 391.747,690.368L437.8,579.579L368.72,527.298C350.038,515.712 343.086,493.552 356.265,471.395L418.249,370.308L373.064,354.378L291.529,395.218C280.957,401.445 267.634,396.087 262.275,386.384C257.786,377.55 261.406,365.095 270.24,359.736L355.396,315.421C359.886,312.814 364.23,310.931 368.72,310.931C373.209,310.931 377.554,311.8 381.175,312.669L453.007,335.696C455.615,336.565 457.497,337.434 459.235,339.172L498.19,368.429C503.548,371.904 505.286,378.132 507.025,382.621L526.576,443.736L605.505,464.156C616.077,466.763 621.435,476.613 621.435,486.314C620.275,495.293 607.965,506.879 597.248,504.129Z" style="fill-rule:nonzero;"/>
                </g>
            </g>
        </g>
    </g>
</svg>
